<svg xmlns="http://www.w3.org/2000/svg" viewBox="0 0 200 100" fill="none">
  <path d="M90 25C90 25 80 35 90 45C100 55 110 55 110 65C110 75 95 80 95 80C95 80 115 80 120 70C125 60 115 50 105 40C95 30 90 25 90 25Z" fill="#E76F00"/>
  <path d="M85 70C85 70 75 75 85 80C95 85 115 85 125 80C135 75 130 70 130 70C130 70 140 75 135 80C130 85 110 90 95 85C80 80 85 70 85 70Z" fill="#E76F00"/>
  <path d="M105 15C105 15 95 25 95 40C95 55 110 55 110 65C110 75 90 85 90 85C90 85 115 85 115 65C115 45 100 45 100 35C100 25 105 15 105 15Z" fill="#5382A1"/>
  <path d="M120 85C120 85 125 90 115 95C105 100 75 100 75 95C75 90 80 90 80 90C80 90 75 85 70 90C65 95 85 100 105 100C125 100 125 90 120 85Z" fill="#5382A1"/>
</svg> 