<svg xmlns="http://www.w3.org/2000/svg" viewBox="0 0 200 100" fill="none">
  <path d="M97.5 30C89.5 30 83 36.5 83 44.5C83 48.8 84.9 52.7 88 55.2C88.3 52.9 89.5 50.8 91.3 49.3C93.1 47.8 95.4 47 97.8 47C102.6 47 106.6 50.9 106.6 55.7C106.6 58 105.7 60.2 104.2 61.8C107.3 60.9 110 59.1 112 56.5C113.9 53.9 115 50.8 115 47.5C115 37.8 107.2 30 97.5 30Z" fill="#00A1E0"/>
  <path d="M88 55C84.1 55 81 58.1 81 62C81 65.9 84.1 69 88 69C91.9 69 95 65.9 95 62C95 58.1 91.9 55 88 55Z" fill="#00A1E0"/>
  <path d="M104 62C100.1 62 97 65.1 97 69C97 72.9 100.1 76 104 76C107.9 76 111 72.9 111 69C111 65.1 107.9 62 104 62Z" fill="#00A1E0"/>
  <path d="M113 47C110.2 47 108 49.2 108 52C108 54.8 110.2 57 113 57C115.8 57 118 54.8 118 52C118 49.2 115.8 47 113 47Z" fill="#00A1E0"/>
  <path d="M97.5 39C94.7 39 92.5 41.2 92.5 44C92.5 46.8 94.7 49 97.5 49C100.3 49 102.5 46.8 102.5 44C102.5 41.2 100.3 39 97.5 39Z" fill="#00A1E0"/>
</svg> 