<svg width="80" height="80" viewBox="0 0 80 80" fill="none" xmlns="http://www.w3.org/2000/svg">
  <path d="M65 57.5H21.25C15.0368 57.5 10 52.4632 10 46.25C10 40.0368 15.0368 35 21.25 35C21.7 35 22.1438 35.0292 22.5807 35.0865C24.5795 27.3885 31.5285 22.5 39.5833 22.5C48.9705 22.5 56.6667 30.1962 56.6667 39.5833C56.6667 40.2292 56.6255 40.8668 56.545 41.4935C61.4252 42.3603 65 46.6437 65 51.6667C65 54.8883 62.3883 57.5 59.1667 57.5" stroke="#002C5F" stroke-width="3" stroke-linecap="round" stroke-linejoin="round"/>
  <path d="M40 57.5V67.5" stroke="#002C5F" stroke-width="3" stroke-linecap="round" stroke-linejoin="round"/>
  <path d="M30 67.5L40 57.5L50 67.5" stroke="#002C5F" stroke-width="3" stroke-linecap="round" stroke-linejoin="round"/>
</svg>