<svg width="80" height="80" viewBox="0 0 80 80" fill="none" xmlns="http://www.w3.org/2000/svg">
  <path d="M47.5 10H65C67.7614 10 70 12.2386 70 15V65C70 67.7614 67.7614 70 65 70H15C12.2386 70 10 67.7614 10 65V15C10 12.2386 12.2386 10 15 10H32.5" stroke="#002C5F" stroke-width="3" stroke-linecap="round" stroke-linejoin="round"/>
  <path d="M30 50H50" stroke="#002C5F" stroke-width="3" stroke-linecap="round" stroke-linejoin="round"/>
  <path d="M30 60H40" stroke="#002C5F" stroke-width="3" stroke-linecap="round" stroke-linejoin="round"/>
  <path d="M40 10C40 10 45 15 45 20C45 25 40 30 40 30C40 30 35 25 35 20C35 15 40 10 40 10Z" stroke="#002C5F" stroke-width="3" stroke-linecap="round" stroke-linejoin="round"/>
  <path d="M47.5 42.5C47.5 42.5 52.5 32.5 55 32.5C57.5 32.5 60 35 60 35C60 35 62.5 37.5 62.5 40C62.5 42.5 52.5 47.5 52.5 47.5" stroke="#002C5F" stroke-width="3" stroke-linecap="round" stroke-linejoin="round"/>
  <path d="M32.5 42.5C32.5 42.5 27.5 32.5 25 32.5C22.5 32.5 20 35 20 35C20 35 17.5 37.5 17.5 40C17.5 42.5 27.5 47.5 27.5 47.5" stroke="#002C5F" stroke-width="3" stroke-linecap="round" stroke-linejoin="round"/>
  <path d="M40 30V40" stroke="#002C5F" stroke-width="3" stroke-linecap="round" stroke-linejoin="round"/>
</svg>