<svg width="160" height="22" viewBox="0 0 160 22" fill="none" xmlns="http://www.w3.org/2000/svg">
  <path d="M0 1.5h11.8v3.8H7.9V20H4V5.3H0V1.5zM16.9 1.5h3.9v6.7h5.2V1.5h3.9V20H26v-7.4h-5.2V20h-3.9V1.5zM42 20.3c-4.8 0-8.1-3.2-8.1-9.3s3.4-9.3 8.1-9.3 8.1 3.2 8.1 9.3-3.3 9.3-8.1 9.3zm0-14.7c-2.6 0-4.2 2-4.2 5.4 0 3.5 1.6 5.4 4.2 5.4s4.2-2 4.2-5.4c0-3.5-1.6-5.4-4.2-5.4zM54 1.5h3.9v14.2h7.3V20H54V1.5zM68.3 1.5H80v3.8h-7.8v3h6.8v3.8h-6.8v3.5H80V20H68.3V1.5zM83 1.5h3.9v14.2h7.3V20H83V1.5zM96.9 1.5h3.9v6.7h5.2V1.5h3.9V20h-3.9v-7.4h-5.2V20h-3.9V1.5zM115.1 1.5h3.9v14.2h7.3V20h-11.2V1.5zM133.6 12.3V20h-3.9V1.5h8.3c3.7 0 5.9 2.2 5.9 5.2 0 2.5-1.5 4-3.1 4.6l3.6 8.1h-4.3l-3.1-7.4h-3.4zm0-7v3.6h4c1.3 0 2.2-0.6 2.2-1.8s-0.9-1.8-2.2-1.8h-4zM160 5.3h-6.4v3h5.3v3.8h-5.3V20h-3.9V1.5H160v3.8z" fill="white"/>
</svg>