<svg width="138" height="19" viewBox="0 0 138 19" fill="none" xmlns="http://www.w3.org/2000/svg">
  <path d="M0 1.5h10.2v3.3H6.8V17H3.4V4.8H0V1.5zM14.5 1.5h3.4v5.8h4.5V1.5h3.4V17h-3.4v-6.4h-4.5V17h-3.4V1.5zM36.2 17.3c-4.1 0-7-2.8-7-8 0-5.2 2.9-8 7-8 4.1 0 7 2.8 7 8 0 5.2-2.9 8-7 8zm0-12.7c-2.2 0-3.6 1.7-3.6 4.7 0 3 1.4 4.7 3.6 4.7 2.2 0 3.6-1.7 3.6-4.7 0-3-1.4-4.7-3.6-4.7zM46.6 1.5H50v12.2h6.3V17H46.6V1.5zM58.9 1.5h10.2v3.3h-6.8v2.6h5.9v3.3h-5.9v3h6.8V17H58.9V1.5zM71.6 1.5H75v12.2h6.3V17H71.6V1.5zM83.6 1.5h3.4v5.8h4.5V1.5h3.4V17h-3.4v-6.4h-4.5V17h-3.4V1.5zM99.3 1.5h3.4v12.2h6.3V17H99.3V1.5zM115.3 10.6V17h-3.4V1.5h7.2c3.2 0 5.1 1.9 5.1 4.5 0 2.2-1.3 3.5-2.7 4l3.1 7h-3.7l-2.7-6.4h-2.9zm0-6v3.1h3.5c1.1 0 1.9-0.5 1.9-1.5 0-1-0.8-1.5-1.9-1.5h-3.5zM138 4.8h-5.5v2.6h4.6v3.3h-4.6v6.4h-3.4V1.5H138v3.3z" fill="#002C5F"/>
</svg>